<svg width="54" height="54" viewBox="0 0 54 54" fill="none" xmlns="http://www.w3.org/2000/svg">
<g clip-path="url(#clip0_1201_4557)">
<path d="M27 54C41.9117 54 54 41.9117 54 27C54 12.0883 41.9117 0 27 0C12.0883 0 0 12.0883 0 27C0 41.9117 12.0883 54 27 54Z" fill="white"/>
<path d="M34.8635 17H20.1362C18.4794 17 17.1362 18.3431 17.1362 20V33C17.1362 34.6569 18.4794 36 20.1362 36H34.8635C36.5204 36 37.8635 34.6569 37.8635 33V20C37.8635 18.3431 36.5204 17 34.8635 17Z" fill="#DA4732"/>
</g>
<defs>
<clipPath id="clip0_1201_4557">
<rect width="54" height="54" fill="white"/>
</clipPath>
</defs>
</svg>
